<svg width="51" height="51" viewBox="0 0 51 51" fill="none" xmlns="http://www.w3.org/2000/svg">
<path d="M37.8706 24.3379C37.1726 22.715 36.2156 21.3084 34.9995 20.1158C33.7812 18.9254 32.3553 17.9791 30.7217 17.2833C29.086 16.5853 27.3432 16.2363 25.4913 16.2363H19.1367V20.6104H25.4913C26.7587 20.6104 27.9449 20.8395 29.0475 21.2955C30.1501 21.7516 31.1071 22.3853 31.9186 23.1967C32.73 24.0082 33.3766 24.9524 33.8583 26.0293C34.34 27.1062 34.582 28.2795 34.582 29.547C34.582 30.8145 34.34 31.9556 33.8583 33.0454C33.3766 34.1352 32.73 35.0793 31.9186 35.8779C31.1071 36.6765 30.1501 37.3038 29.0475 37.7599C27.9449 38.2159 26.7587 38.445 25.4913 38.445H19.1367V42.8191H25.4913C27.3411 42.8191 29.086 42.4765 30.7217 41.7914C32.3575 41.1063 33.7834 40.1621 34.9995 38.9588C36.2156 37.7556 37.1726 36.3468 37.8706 34.7368C38.5664 33.1267 38.9154 31.3968 38.9154 29.5448C38.9154 27.6929 38.5664 25.9565 37.8706 24.3336" fill="#1AB580"/>
<path d="M14.9414 20.4678L15.2005 21.1379C15.9049 22.5874 17.3436 23.3881 18.9322 23.4823C21.3323 23.6258 23.9294 23.3046 26.3145 23.4823C30.3888 23.7842 32.9709 28.2097 31.3201 31.95C29.0849 37.0135 23.2143 35.2857 18.8316 35.579C17.4571 35.6711 16.1318 36.4076 15.4231 37.5937L14.9414 38.5935V33.1961C15.6715 32.3183 16.7463 31.813 17.8853 31.7209C20.3924 31.5175 23.1479 31.8901 25.6636 31.7166C28.6589 31.509 28.7017 27.5609 25.7642 27.3447C23.1736 27.1541 20.3218 27.5502 17.7354 27.3404C16.7035 27.2569 15.5537 26.7709 14.9414 25.9166V20.4699V20.4678Z" fill="white"/>
<path d="M16.9029 14.6201H12V19.523H16.9029V14.6201Z" fill="#1AB580"/>
<path d="M23.7834 9.20996H19.8203V13.173H23.7834V9.20996Z" fill="#1AB580"/>
<path d="M16.4318 8H12.4688V11.963H16.4318V8Z" fill="white"/>
</svg>
