<svg width="75" height="82" viewBox="0 0 75 82" fill="none" xmlns="http://www.w3.org/2000/svg">
<g clip-path="url(#clip0_8204_104)">
<path d="M37.8075 31.8291C33.6199 31.8291 30.2129 35.2318 30.2129 39.4145C30.2129 43.5973 33.6199 47 37.8075 47C41.9951 47 45.4021 43.5973 45.4021 39.4145C45.4021 35.2318 41.9951 31.8291 37.8075 31.8291ZM37.8075 44.6587C34.912 44.6587 32.5566 42.3058 32.5566 39.4145C32.5566 36.5227 34.912 34.1698 37.8075 34.1698C40.703 34.1698 43.0583 36.5227 43.0583 39.4145C43.0583 42.3058 40.703 44.6587 37.8075 44.6587Z" fill="#1AB580"/>
<path d="M51.6313 28.9972L48.2372 25.6073C47.8246 25.1953 47.1709 25.1489 46.7046 25.4993L44.1478 27.4182C43.4026 27.0245 42.6226 26.7023 41.8169 26.4539L41.3677 23.2916C41.2859 22.7142 40.7909 22.2852 40.2074 22.2852H35.4076C34.8235 22.2852 34.3291 22.7142 34.2467 23.2916L33.7975 26.4539C32.9918 26.7023 32.2124 27.0245 31.4672 27.4182L28.9104 25.4993C28.4435 25.1489 27.7904 25.1953 27.3772 25.6073L23.9836 28.9972C23.571 29.4098 23.5247 30.0623 23.875 30.528L25.7964 33.0823C25.4027 33.8263 25.0792 34.6051 24.8308 35.4095L21.6643 35.8588C21.0863 35.9405 20.6572 36.4349 20.6572 37.0178V41.8115C20.6572 42.3944 21.0863 42.8888 21.6643 42.9706L24.8308 43.4198C25.0792 44.2242 25.4021 45.003 25.7964 45.7471L23.875 48.3014C23.5247 48.7671 23.571 49.4195 23.9836 49.8321L27.3772 53.222C27.7904 53.634 28.4435 53.6798 28.9104 53.3301L31.4672 51.4111C32.2124 51.8042 32.9918 52.1271 33.7975 52.3755L34.2467 55.5377C34.3291 56.1151 34.8235 56.5436 35.4076 56.5436H40.2074C40.7909 56.5436 41.2853 56.1151 41.3677 55.5377L41.8169 52.3755C42.6226 52.1271 43.4026 51.8042 44.1478 51.4111L46.7046 53.3301C47.1709 53.6804 47.8246 53.634 48.2372 53.222L51.6313 49.8321C52.0439 49.4195 52.0897 48.7671 51.7394 48.3014L49.818 45.7471C50.2123 45.003 50.5352 44.2242 50.7836 43.4198L53.9501 42.9706C54.5281 42.8888 54.9578 42.3944 54.9578 41.8115V37.0178C54.9578 36.4349 54.5281 35.9405 53.9501 35.8588L50.7836 35.4095C50.5352 34.6051 50.2123 33.8263 49.818 33.0823L51.7394 30.528C52.0897 30.0623 52.0439 29.4098 51.6313 28.9972ZM52.614 38.0334V40.7953L49.6947 41.2097C49.2205 41.2769 48.8347 41.6254 48.7206 42.0905C48.4496 43.1988 48.0113 44.2554 47.4187 45.2301C47.1697 45.639 47.1953 46.1578 47.4834 46.5405L49.2546 48.8953L47.2991 50.8478L44.9419 49.079C44.5586 48.7915 44.0392 48.7653 43.6296 49.0143C42.6537 49.6057 41.5959 50.0433 40.4857 50.3149C40.0206 50.4285 39.6715 50.8136 39.6038 51.2872L39.1899 54.2029H36.4244L36.01 51.2872C35.9429 50.8136 35.5931 50.4285 35.128 50.3149C34.0178 50.0433 32.9607 49.6057 31.9847 49.0143C31.5752 48.7653 31.0558 48.7915 30.6725 49.079L28.3153 50.8478L26.3597 48.8946L28.131 46.5405C28.4185 46.1578 28.4441 45.639 28.1957 45.2301C27.603 44.2554 27.1648 43.1988 26.8932 42.0898C26.7797 41.6254 26.3939 41.2762 25.9197 41.2091L23.0004 40.7953V38.0334L25.9197 37.6196C26.3939 37.5525 26.7797 37.2034 26.8932 36.7389C27.1648 35.6299 27.603 34.574 28.1957 33.5992C28.4441 33.1897 28.4185 32.6709 28.131 32.2888L26.3597 29.9341L28.3153 27.981L30.6725 29.7504C31.0558 30.0372 31.5752 30.0635 31.9847 29.8151C32.9607 29.223 34.0178 28.7854 35.128 28.5144C35.5931 28.4003 35.9423 28.0157 36.01 27.5415L36.4244 24.6259H39.1899L39.6038 27.5415C39.6715 28.0151 40.0206 28.4003 40.4857 28.5144C41.5959 28.7854 42.6537 29.223 43.6296 29.8151C44.0392 30.0635 44.5586 30.0372 44.9419 29.7504L47.2991 27.981L49.2546 29.9341L47.4834 32.2888C47.1953 32.6709 47.1697 33.1903 47.4187 33.5992C48.0113 34.574 48.449 35.6299 48.7206 36.7383C48.8341 37.2034 49.2198 37.5525 49.6941 37.6196L52.614 38.0334Z" fill="#15161B"/>
<path d="M37.8066 9.78637C38.4542 9.78637 38.9785 9.26269 38.9785 8.61633V1.75171C38.9785 1.10474 38.4542 0.581055 37.8066 0.581055C37.1597 0.581055 36.6348 1.10474 36.6348 1.75171V8.61633C36.6348 9.26269 37.1597 9.78637 37.8066 9.78637Z" fill="#15161B"/>
<path d="M72.8829 35.6143H66.0098C65.3622 35.6143 64.8379 36.1379 64.8379 36.7843C64.8379 37.4313 65.3622 37.955 66.0098 37.955H72.8829C73.5299 37.955 74.0548 37.4313 74.0548 36.7843C74.0548 36.1379 73.5299 35.6143 72.8829 35.6143Z" fill="#15161B"/>
<path d="M9.60364 35.6143H2.73047C2.0835 35.6143 1.55859 36.1379 1.55859 36.7843C1.55859 37.4313 2.0835 37.955 2.73047 37.955H9.60364C10.2506 37.955 10.7755 37.4313 10.7755 36.7843C10.7755 36.1379 10.2512 35.6143 9.60364 35.6143Z" fill="#15161B"/>
<path d="M17.0351 17.6936C17.4868 18.1447 18.2412 18.1447 18.6922 17.6936C19.15 17.2364 19.15 16.4955 18.6922 16.0383L13.8326 11.1842C13.3748 10.7277 12.6327 10.7277 12.1749 11.1842C11.7177 11.6414 11.7177 12.3823 12.1749 12.8401L17.0351 17.6936Z" fill="#15161B"/>
<path d="M11.9745 25.4196L9.59967 24.4901C8.99664 24.2545 8.31732 24.5511 8.08111 25.1529C7.84491 25.7547 8.14215 26.434 8.74457 26.6696L11.1201 27.5992C11.7151 27.8317 12.4055 27.5302 12.6386 26.9363C12.8748 26.3339 12.5776 25.6552 11.9745 25.4196Z" fill="#15161B"/>
<path d="M26.4274 10.9849C26.6606 11.5788 27.3509 11.8803 27.946 11.6478C28.5484 11.4122 28.8456 10.7328 28.61 10.131L27.6518 7.68963C27.4162 7.08721 26.7363 6.79058 26.1332 7.02618C25.5308 7.26238 25.2336 7.94109 25.4698 8.5429L26.4274 10.9849Z" fill="#15161B"/>
<path d="M47.6664 11.6475C48.2615 11.8801 48.9518 11.5785 49.185 10.9847L50.1432 8.54327C50.3788 7.94085 50.0822 7.26214 49.4792 7.02593C48.8768 6.79095 48.1968 7.08697 47.9606 7.68877L47.003 10.1308C46.7668 10.7326 47.064 11.4113 47.6664 11.6475Z" fill="#15161B"/>
<path d="M57.7493 18.0366C58.049 18.0366 58.3493 17.9225 58.5782 17.6936L63.4378 12.8401C63.8956 12.3823 63.8956 11.6414 63.4378 11.1842C62.98 10.7277 62.2385 10.7277 61.7807 11.1842L56.9205 16.0383C56.4627 16.4955 56.4627 17.2364 56.9205 17.6936C57.1494 17.9225 57.4496 18.0366 57.7493 18.0366Z" fill="#15161B"/>
<path d="M67.5331 25.153C67.2969 24.5506 66.617 24.2545 66.0146 24.4901L63.6391 25.4197C63.0367 25.6553 62.7394 26.334 62.9756 26.9364C63.2088 27.5303 63.8991 27.8318 64.4942 27.5993L66.8697 26.6697C67.4721 26.4341 67.7693 25.7548 67.5331 25.153Z" fill="#15161B"/>
<path d="M38.0206 12.6357C33.1384 12.5942 28.374 13.9845 24.2517 16.6548C23.7085 17.007 23.5541 17.7315 23.9062 18.2741C24.2578 18.8161 24.9841 18.9705 25.5267 18.6189C29.2102 16.2337 33.4534 14.9758 37.8125 14.9758C37.8754 14.9758 37.9388 14.9758 38.0017 14.9764C44.0356 15.027 49.7003 17.4117 53.9526 21.6927C58.2074 25.9755 60.5505 31.6573 60.5505 37.6912C60.5505 45.0704 56.9391 52.0168 50.8893 56.2733C48.8934 57.6772 47.5885 59.828 47.2607 62.1797H43.2519C42.6044 62.1797 42.0801 62.704 42.0801 63.3504C42.0801 63.9967 42.6044 64.521 43.2519 64.521H47.1796V70.5232C47.1796 72.0064 45.9711 73.213 44.4861 73.213H31.1279C29.6429 73.213 28.4344 72.0064 28.4344 70.5232V64.521H38.5644C39.212 64.521 39.7363 63.9967 39.7363 63.3504C39.7363 62.704 39.212 62.1797 38.5644 62.1797H28.3514C28.028 59.825 26.7419 57.6857 24.7699 56.3051C18.692 52.0509 15.0635 45.0929 15.0635 37.6918C15.0635 31.5279 17.5366 25.7424 22.0282 21.4009C22.4933 20.9511 22.5055 20.2101 22.0551 19.7457C21.6052 19.2812 20.8636 19.269 20.3979 19.7188C15.4468 24.5052 12.7197 30.8882 12.7197 37.6918C12.7197 45.8553 16.7218 53.5304 23.4247 58.2222C25.094 59.3904 26.0907 61.3075 26.0907 63.3504V70.5232C26.0907 72.9561 27.829 74.991 30.13 75.4542C31.4032 78.5499 34.3976 80.5806 37.807 80.5806C41.2164 80.5806 44.2108 78.5499 45.4834 75.4542C47.7844 74.991 49.5227 72.9561 49.5227 70.5232V63.3534L49.5233 63.3504C49.5233 61.3136 50.5383 59.3837 52.2394 58.1868C58.9105 53.4926 62.8937 45.8308 62.8937 37.6918C62.8937 31.0359 60.3094 24.7688 55.6164 20.0441C50.9259 15.3224 44.6771 12.6912 38.0206 12.6357ZM37.807 78.2399C35.7458 78.2399 33.8959 77.2066 32.8174 75.5537H42.7966C41.7181 77.2066 39.8682 78.2399 37.807 78.2399Z" fill="#1AB580"/>
</g>
<defs>
<clipPath id="clip0_8204_104">
<rect width="74" height="81" fill="white" transform="translate(0.75 0.5)"/>
</clipPath>
</defs>
</svg>
