<svg width="161" height="35" viewBox="0 0 161 35" fill="none" xmlns="http://www.w3.org/2000/svg">
<g clip-path="url(#clip0_5_15)">
<path d="M114.058 15.6035C115.326 15.6035 116.508 15.8433 117.608 16.3208C118.709 16.7982 119.664 17.4448 120.477 18.2562C121.289 19.0698 121.935 20.0247 122.413 21.1252C122.89 22.2257 123.13 23.4075 123.13 24.675V31.6675C123.13 32.2177 122.927 32.6952 122.52 33.102C122.113 33.5088 121.623 33.7122 121.049 33.7122C120.475 33.7122 120.021 33.5088 119.614 33.102C119.208 32.6952 119.004 32.2177 119.004 31.6675V24.675C119.004 23.9813 118.874 23.3368 118.61 22.7395C118.347 22.1422 117.994 21.6219 117.553 21.1787C117.109 20.7377 116.589 20.3844 115.994 20.121C115.397 19.8577 114.75 19.7271 114.058 19.7271C113.367 19.7271 112.75 19.8577 112.14 20.121C111.53 20.3844 111.005 20.7377 110.562 21.1787C110.119 21.6219 109.768 22.1422 109.505 22.7395C109.241 23.3368 109.111 23.9834 109.111 24.675V31.6675C109.111 32.2177 108.914 32.6952 108.52 33.102C108.126 33.5088 107.642 33.7122 107.068 33.7122C106.494 33.7122 106.04 33.5088 105.634 33.102C105.227 32.6952 105.023 32.2177 105.023 31.6675V24.675C105.023 23.4075 105.261 22.2257 105.741 21.1252C106.218 20.0268 106.865 19.0698 107.676 18.2562C108.488 17.4448 109.445 16.7982 110.545 16.3208C111.643 15.8433 112.815 15.6035 114.058 15.6035Z" fill="white"/>
<path d="M136.252 22.9894C136.92 23.0858 137.536 23.2827 138.097 23.5803C138.658 23.8801 139.142 24.2612 139.549 24.7279C139.956 25.1947 140.273 25.7256 140.5 26.323C140.726 26.9203 140.84 27.554 140.84 28.2242C140.84 28.8943 140.709 29.5923 140.446 30.2496C140.183 30.9069 139.799 31.4871 139.298 31.9881C138.797 32.4912 138.217 32.8787 137.56 33.1528C136.903 33.429 136.215 33.566 135.498 33.566H127.861C127.311 33.566 126.833 33.3626 126.427 32.9558C126.02 32.549 125.817 32.0716 125.817 31.5213C125.817 30.9711 126.02 30.4573 126.427 30.0505C126.833 29.6437 127.311 29.4403 127.861 29.4403H135.498C135.858 29.4403 136.155 29.3204 136.395 29.0806C136.633 28.8429 136.755 28.556 136.755 28.2199C136.755 27.933 136.659 27.6825 136.468 27.4663C136.275 27.25 136.038 27.1194 135.751 27.0723C134.843 26.9524 133.862 26.8282 132.811 26.6955C131.76 26.5649 130.779 26.4386 129.872 26.3187C129.227 26.248 128.621 26.0553 128.06 25.7449C127.499 25.4345 127.009 25.0448 126.589 24.5802C126.17 24.1135 125.849 23.5889 125.622 23.0023C125.395 22.4178 125.281 21.7883 125.281 21.1203C125.281 20.3795 125.425 19.6858 125.712 19.0414C125.998 18.397 126.38 17.8275 126.859 17.3372C127.337 16.8469 127.9 16.4658 128.544 16.1896C129.189 15.9155 129.882 15.7764 130.623 15.7764H137.723C138.296 15.7764 138.787 15.9733 139.194 16.3673C139.6 16.7612 139.804 17.2451 139.804 17.8189C139.804 18.3927 139.6 18.8765 139.194 19.2705C138.787 19.6644 138.296 19.8614 137.723 19.8614H130.623C130.289 19.8614 129.996 19.9877 129.745 20.2382C129.495 20.4887 129.368 20.782 129.368 21.116C129.368 21.4029 129.463 21.6534 129.655 21.8697C129.846 22.0859 130.086 22.2165 130.373 22.2636L136.254 22.9809L136.252 22.9894Z" fill="white"/>
<path d="M159.812 25.6789C159.525 26.015 159.184 26.2698 158.79 26.4497C158.396 26.6295 157.983 26.7194 157.553 26.7194H147.083C147.49 27.5801 148.088 28.2802 148.875 28.8176C149.663 29.355 150.56 29.6248 151.565 29.6248C152.185 29.6248 152.778 29.5177 153.339 29.3015C153.9 29.0874 154.397 28.7877 154.827 28.4044C155.258 28.0212 155.754 27.8477 156.315 27.8841C156.876 27.9205 157.35 28.1539 157.731 28.5843C158.09 29.0146 158.251 29.5113 158.215 30.0723C158.178 30.6332 157.945 31.1064 157.514 31.4896C156.727 32.1833 155.823 32.7271 154.808 33.121C153.791 33.515 152.71 33.712 151.562 33.712C150.318 33.712 149.147 33.4743 148.049 32.9947C146.949 32.5173 145.994 31.8707 145.18 31.0593C144.366 30.2478 143.722 29.2908 143.245 28.1903C142.767 27.0898 142.527 25.9187 142.527 24.6769C142.527 23.4351 142.767 22.2276 143.245 21.1271C143.722 20.0288 144.369 19.0718 145.18 18.2582C145.991 17.4467 146.949 16.8001 148.049 16.3227C149.147 15.8453 150.321 15.6055 151.562 15.6055C152.686 15.6055 153.755 15.8024 154.772 16.1964C155.787 16.5903 156.69 17.1277 157.478 17.8107C158.268 18.4915 158.93 19.2987 159.469 20.23C160.007 21.1614 160.36 22.1655 160.527 23.2424C160.647 24.1738 160.407 24.9874 159.81 25.681M156.082 22.6323C155.675 21.7716 155.072 21.0736 154.271 20.5341C153.47 19.9967 152.567 19.7269 151.562 19.7269C150.558 19.7269 149.661 19.9945 148.873 20.5341C148.083 21.0715 147.486 21.7716 147.081 22.6323H156.082Z" fill="white"/>
<path d="M26.0815 16.5127C25.3835 14.8898 24.4265 13.4832 23.2104 12.2906C21.9921 11.1002 20.5662 10.1539 18.9326 9.45809C17.2969 8.76012 15.5541 8.41113 13.7022 8.41113H7.34766V12.7852H13.7022C14.9696 12.7852 16.1558 13.0143 17.2584 13.4703C18.361 13.9264 19.318 14.5601 20.1295 15.3715C20.9409 16.183 21.5875 17.1272 22.0692 18.2041C22.5509 19.281 22.7929 20.4543 22.7929 21.7218C22.7929 22.9893 22.5509 24.1304 22.0692 25.2202C21.5875 26.31 20.9409 27.2541 20.1295 28.0527C19.318 28.8513 18.361 29.4786 17.2584 29.9347C16.1558 30.3907 14.9696 30.6198 13.7022 30.6198H7.34766V34.9939H13.7022C15.552 34.9939 17.2969 34.6513 18.9326 33.9662C20.5684 33.2811 21.9943 32.3369 23.2104 31.1336C24.4265 29.9304 25.3835 28.5216 26.0815 26.9116C26.7773 25.3015 27.1263 23.5716 27.1263 21.7196C27.1263 19.8677 26.7773 18.1313 26.0815 16.5084" fill="white"/>
<path d="M39.2265 15.6035C40.4939 15.6035 41.6758 15.8433 42.7762 16.3208C43.8746 16.7982 44.8316 17.4448 45.6452 18.2562C46.4566 19.0698 47.1032 20.0247 47.5807 21.1252C48.0581 22.2257 48.2979 23.4075 48.2979 24.675C48.2979 25.9424 48.0581 27.09 47.5807 28.1884C47.1032 29.2888 46.4566 30.2437 45.6452 31.0573C44.8316 31.8709 43.8767 32.5153 42.7762 32.9928C41.6758 33.4724 40.4939 33.71 39.2265 33.71C37.959 33.71 36.8114 33.4724 35.7131 32.9928C34.6126 32.5153 33.6577 31.8688 32.8441 31.0573C32.0305 30.2459 31.3861 29.2888 30.9086 28.1884C30.4291 27.0879 30.1914 25.9168 30.1914 24.675C30.1914 23.4332 30.4291 22.2257 30.9086 21.1252C31.3861 20.0268 32.0327 19.0698 32.8441 18.2562C33.6556 17.4448 34.6126 16.7982 35.7131 16.3208C36.8135 15.8433 37.9847 15.6035 39.2265 15.6035ZM39.2265 29.625C39.9201 29.625 40.5646 29.4944 41.1619 29.231C41.7593 28.9677 42.2795 28.6166 42.7227 28.1734C43.1638 27.7302 43.517 27.2056 43.7804 26.5954C44.0437 25.9853 44.1743 25.3472 44.1743 24.6771C44.1743 24.007 44.0437 23.339 43.7804 22.7416C43.517 22.1443 43.1638 21.624 42.7227 21.1808C42.2795 20.7377 41.7593 20.3865 41.1619 20.1232C40.5646 19.8598 39.918 19.7292 39.2265 19.7292C38.5349 19.7292 37.9183 19.862 37.3081 20.1232C36.6979 20.3865 36.1734 20.7398 35.7302 21.1808C35.287 21.624 34.9359 22.1443 34.6725 22.7416C34.4092 23.339 34.2786 23.9856 34.2786 24.6771C34.2786 25.3687 34.4092 25.9853 34.6725 26.5954C34.9359 27.2056 35.287 27.7302 35.7302 28.1734C36.1712 28.6166 36.6979 28.9677 37.3081 29.231C37.9183 29.4944 38.5563 29.625 39.2265 29.625Z" fill="white"/>
<path d="M62.5333 27.867C62.9144 27.4602 63.3876 27.2333 63.9485 27.1862C64.5095 27.1391 65.0062 27.2932 65.4365 27.6529C65.8669 28.0362 66.1002 28.5072 66.1366 29.0681C66.173 29.6291 66.0103 30.1258 65.6528 30.5561C64.8156 31.5367 63.8072 32.3075 62.6232 32.8684C61.4393 33.4294 60.1547 33.712 58.7694 33.712C57.5255 33.712 56.3544 33.4743 55.256 32.9947C54.1556 32.5173 53.2007 31.8707 52.3871 31.0593C51.5735 30.2478 50.9291 29.2908 50.4516 28.1903C49.972 27.0898 49.7344 25.9187 49.7344 24.6769C49.7344 23.4351 49.972 22.2276 50.4516 21.1271C50.9291 20.0288 51.5756 19.0718 52.3871 18.2582C53.1985 17.4467 54.1556 16.8001 55.256 16.3227C56.3544 15.8453 57.5255 15.6055 58.7694 15.6055C60.1547 15.6055 61.4414 15.8924 62.6232 16.4662C63.8072 17.0399 64.8156 17.8043 65.6528 18.7613C66.0124 19.1917 66.173 19.6884 66.1366 20.2493C66.1002 20.8103 65.8669 21.2834 65.4365 21.6667C65.0062 22.0499 64.5095 22.2169 63.9485 22.1677C63.3876 22.1206 62.9144 21.8808 62.5333 21.4504C62.0794 20.9002 61.5292 20.4763 60.8847 20.1765C60.2382 19.8789 59.5338 19.729 58.7694 19.729C58.0993 19.729 57.4613 19.8618 56.8511 20.123C56.2409 20.3863 55.7142 20.7396 55.2732 21.1807C54.83 21.6238 54.4788 22.1441 54.2155 22.7414C53.9522 23.3388 53.8216 23.9854 53.8216 24.6769C53.8216 25.3685 53.9522 25.9851 54.2155 26.5953C54.4788 27.2054 54.83 27.73 55.2732 28.1732C55.7142 28.6164 56.2409 28.9675 56.8511 29.2308C57.4613 29.4942 58.0993 29.6248 58.7694 29.6248C59.5338 29.6248 60.2403 29.4685 60.8847 29.158C61.5313 28.8476 62.0794 28.4173 62.5333 27.867Z" fill="white"/>
<path d="M79.0994 22.9894C79.7674 23.0858 80.384 23.2827 80.945 23.5803C81.5059 23.8801 81.9898 24.2612 82.3966 24.7279C82.8034 25.1947 83.1202 25.7256 83.3472 26.323C83.5741 26.9203 83.6876 27.554 83.6876 28.2242C83.6876 28.8943 83.557 29.5923 83.2937 30.2496C83.0303 30.9069 82.6471 31.4871 82.1461 31.9881C81.6451 32.4912 81.0649 32.8787 80.4076 33.1528C79.7503 33.429 79.063 33.566 78.3458 33.566H70.7088C70.1586 33.566 69.6811 33.3626 69.2743 32.9558C68.8676 32.549 68.6642 32.0716 68.6642 31.5213C68.6642 30.9711 68.8676 30.4573 69.2743 30.0505C69.6811 29.6437 70.1586 29.4403 70.7088 29.4403H78.3458C78.7055 29.4403 79.0031 29.3204 79.2429 29.0806C79.4805 28.8429 79.6026 28.556 79.6026 28.2199C79.6026 27.933 79.5062 27.6825 79.3157 27.4663C79.1251 27.25 78.8853 27.1194 78.5984 27.0723C77.6907 26.9524 76.7101 26.8282 75.6588 26.6955C74.6076 26.5649 73.627 26.4386 72.7192 26.3187C72.0748 26.248 71.4689 26.0553 70.9079 25.7449C70.347 25.4345 69.8567 25.0448 69.4371 24.5802C69.0174 24.1135 68.6963 23.5889 68.4693 23.0023C68.2424 22.4178 68.1289 21.7883 68.1289 21.1203C68.1289 20.3795 68.2724 19.6858 68.5593 19.0414C68.8461 18.397 69.2272 17.8275 69.7068 17.3372C70.1843 16.8469 70.7474 16.4658 71.3918 16.1896C72.0384 15.9155 72.7299 15.7764 73.4707 15.7764H80.5703C81.1441 15.7764 81.6344 15.9733 82.0412 16.3673C82.448 16.7612 82.6514 17.2451 82.6514 17.8189C82.6514 18.3927 82.448 18.8765 82.0412 19.2705C81.6344 19.6644 81.1441 19.8614 80.5703 19.8614H73.4707C73.1367 19.8614 72.8434 19.9877 72.5929 20.2382C72.3424 20.4887 72.2161 20.782 72.2161 21.116C72.2161 21.4029 72.3103 21.6534 72.503 21.8697C72.6935 22.0859 72.9333 22.2165 73.2202 22.2636L79.1016 22.9809L79.0994 22.9894Z" fill="white"/>
<path d="M102.659 25.6789C102.372 26.015 102.032 26.2698 101.638 26.4497C101.244 26.6295 100.831 26.7194 100.401 26.7194H89.9311C90.3379 27.5801 90.9352 28.2802 91.7231 28.8176C92.511 29.355 93.4081 29.6248 94.4122 29.6248C95.0331 29.6248 95.6261 29.5177 96.1871 29.3015C96.748 29.0874 97.2447 28.7877 97.6751 28.4044C98.1054 28.0212 98.6021 27.8477 99.1631 27.8841C99.724 27.9205 100.197 28.1539 100.578 28.5843C100.938 29.0146 101.099 29.5113 101.062 30.0723C101.026 30.6332 100.792 31.1064 100.362 31.4896C99.5742 32.1833 98.6707 32.7271 97.6558 33.121C96.6388 33.515 95.5576 33.712 94.4101 33.712C93.1661 33.712 91.995 33.4743 90.8967 32.9947C89.7962 32.5173 88.8413 31.8707 88.0277 31.0593C87.2141 30.2478 86.5697 29.2908 86.0922 28.1903C85.6148 27.0898 85.375 25.9187 85.375 24.6769C85.375 23.4351 85.6148 22.2276 86.0922 21.1271C86.5697 20.0288 87.2163 19.0718 88.0277 18.2582C88.8413 17.4467 89.7962 16.8001 90.8967 16.3227C91.995 15.8453 93.1683 15.6055 94.4101 15.6055C95.5341 15.6055 96.6024 15.8024 97.6194 16.1964C98.6343 16.5903 99.5378 17.1277 100.326 17.8107C101.116 18.4915 101.777 19.2987 102.317 20.23C102.854 21.1614 103.207 22.1655 103.374 23.2424C103.494 24.1738 103.255 24.9874 102.657 25.681M98.9297 22.6323C98.5229 21.7716 97.9192 21.0736 97.1184 20.5341C96.3177 19.9967 95.4142 19.7269 94.4101 19.7269C93.4059 19.7269 92.5088 19.9945 91.7209 20.5341C90.9331 21.0715 90.3336 21.7716 89.9289 22.6323H98.9297Z" fill="white"/>
<path d="M3.15234 12.6426L3.41141 13.3127C4.1158 14.7622 5.55455 15.5629 7.14318 15.6571C9.54325 15.8006 12.1403 15.4794 14.5254 15.6571C18.5997 15.959 21.1818 20.3845 19.531 24.1248C17.2958 29.1883 11.4252 27.4605 7.04256 27.7538C5.66803 27.8459 4.34274 28.5824 3.63407 29.7685L3.15234 30.7683V25.3709C3.88243 24.4931 4.95721 23.9878 6.09623 23.8957C8.60335 23.6923 11.3588 24.0649 13.8745 23.8914C16.8698 23.6838 16.9126 19.7357 13.9751 19.5195C11.3845 19.3289 8.5327 19.725 5.94636 19.5152C4.91439 19.4317 3.76467 18.9457 3.15234 18.0914V12.6447V12.6426Z" fill="white"/>
<path d="M5.11385 6.79492H0.210938V11.6978H5.11385V6.79492Z" fill="white"/>
<path d="M11.9943 1.38477H8.03125V5.34777H11.9943V1.38477Z" fill="white"/>
<path d="M4.64269 0.174805H0.679688V4.13781H4.64269V0.174805Z" fill="white"/>
</g>
<defs>
<clipPath id="clip0_5_15">
<rect width="161" height="35" fill="white"/>
</clipPath>
</defs>
</svg>
